<?xml version="1.0" encoding="utf-8"?>
<!-- Generator: Adobe Illustrator 16.0.0, SVG Export Plug-In . SVG Version: 6.00 Build 0)  -->
<!DOCTYPE svg PUBLIC "-//W3C//DTD SVG 1.1//EN" "http://www.w3.org/Graphics/SVG/1.1/DTD/svg11.dtd">
<svg version="1.1" id="Calque_1" xmlns="http://www.w3.org/2000/svg" xmlns:xlink="http://www.w3.org/1999/xlink" x="0px" y="0px"
	 width="612px" height="792px" viewBox="0 0 612 792" enable-background="new 0 0 612 792" xml:space="preserve">
<g>
	<path fill-rule="evenodd" clip-rule="evenodd" fill="#FEFEFE" d="M143.75,399.003c65.127,0,130.254,0,195.381-0.001
		c4.889,0,4.892-0.006,4.895-4.877c0.003-5.875,0.001-11.75,0.001-17.625c1.476-0.116,0.706,1.023,0.71,1.497
		c0.06,6.24-0.104,12.486,0.111,18.719c0.086,2.491-0.38,3.128-3.027,3.116c-28.206-0.127-56.414-0.079-84.62-0.079
		c-36.818,0-73.637,0.008-110.456-0.045C145.773,399.706,144.423,400.551,143.75,399.003z"/>
	<path fill-rule="evenodd" clip-rule="evenodd" fill="#3D141A" d="M254.2,393.621c-39.758,0.109-70.323-1.15-100.893-2.219
		c-1.743-0.062-3.481-0.309-5.217-0.514c-1.109-0.131-2.396-0.169-2.275-1.806c0.105-1.442,1.226-1.69,2.396-1.865
		c4.609-0.687,9.22-0.085,13.832-0.068c15.104,0.056,30.21-0.122,45.313,0.054c26.22,0.303,52.437,0.844,78.656,1.203
		c15.236,0.209,30.474,0.223,45.709,0.417c2.466,0.031,5.037-0.111,7.362,0.946c1.08,0.491,2.638,1.164,2.381,2.521
		c-0.27,1.423-1.927,1.299-3.142,1.305c-6.368,0.034-12.736,0.026-19.105,0.026C294.492,393.622,269.766,393.621,254.2,393.621z"/>
</g>
</svg>
