<?xml version="1.0" encoding="utf-8"?>
<!-- Generator: Adobe Illustrator 16.0.0, SVG Export Plug-In . SVG Version: 6.00 Build 0)  -->
<!DOCTYPE svg PUBLIC "-//W3C//DTD SVG 1.1//EN" "http://www.w3.org/Graphics/SVG/1.1/DTD/svg11.dtd">
<svg version="1.1" id="Calque_1" xmlns="http://www.w3.org/2000/svg" xmlns:xlink="http://www.w3.org/1999/xlink" x="0px" y="0px"
	 width="595.28px" height="841.89px" viewBox="0 0 595.28 841.89" enable-background="new 0 0 595.28 841.89" xml:space="preserve">
<g>
	<path fill-rule="evenodd" clip-rule="evenodd" fill="#3D161B" d="M158.866,71.979c24.31,0,48.664,0.908,72.919-0.228
		c31.002-1.452,61.896,0.203,92.833,0.851c0.666,0.015,1.356-0.058,1.991,0.093c1.6,0.376,4.176-0.428,3.935,2.5
		c-0.202,2.449-2.403,1.748-3.935,1.906c-22.569,2.33-45.205,1.783-67.793,0.888c-34.955-1.386-69.923-0.049-104.869-1.051
		c-25.625-0.735-51.181,2.046-76.795,1.167c-1.872-0.064-4.644,1.597-5.501-1.527c-0.883-3.217,1.943-4.225,4.039-5.438
		c2.429-1.407,5.195-1.027,7.816-0.964c21.46,0.515,42.918,1.131,64.377,1.679c3.658,0.094,7.321,0.013,10.982,0.013
		C158.866,71.904,158.866,71.942,158.866,71.979z"/>
</g>
</svg>
